<svg width="60" height="60" viewBox="0 0 60 60" fill="none" xmlns="http://www.w3.org/2000/svg">
<path fill-rule="evenodd" clip-rule="evenodd" d="M30 4.61538C15.9805 4.61538 4.61538 15.9805 4.61538 30C4.61538 44.0195 15.9805 55.3846 30 55.3846C44.0195 55.3846 55.3846 44.0195 55.3846 30C55.3846 15.9805 44.0195 4.61538 30 4.61538ZM0 30C0 13.4315 13.4315 0 30 0C46.5685 0 60 13.4315 60 30C60 46.5685 46.5685 60 30 60C13.4315 60 0 46.5685 0 30Z" fill="#263646"/>
<path fill-rule="evenodd" clip-rule="evenodd" d="M42.8713 35.2959C43.9514 35.9042 44.3208 37.2502 43.6963 38.3024C42.3071 40.643 40.3102 42.5864 37.9062 43.9376C35.5022 45.2887 32.7755 46 30.0001 46C27.2246 46 24.498 45.2888 22.0939 43.9377C19.6898 42.5866 17.693 40.6432 16.3037 38.3026C15.6792 37.2505 16.0486 35.9044 17.1287 35.2961C18.2087 34.6877 19.5905 35.0475 20.215 36.0997C21.2075 37.7718 22.6342 39.1603 24.3517 40.1255C26.0692 41.0908 28.0172 41.5989 30 41.5989C31.9829 41.5989 33.9309 41.0907 35.6484 40.1254C37.3659 39.1601 38.7925 37.7717 39.785 36.0995C40.4094 35.0473 41.7912 34.6875 42.8713 35.2959Z" fill="#263646"/>
<path d="M19.5 28C21.433 28 23 26.433 23 24.5C23 22.567 21.433 21 19.5 21C17.567 21 16 22.567 16 24.5C16 26.433 17.567 28 19.5 28Z" fill="#263646"/>
<path d="M40.5 28C42.433 28 44 26.433 44 24.5C44 22.567 42.433 21 40.5 21C38.567 21 37 22.567 37 24.5C37 26.433 38.567 28 40.5 28Z" fill="#263646"/>
</svg>
