<svg width="13" height="13" viewBox="0 0 13 13" fill="none" xmlns="http://www.w3.org/2000/svg">
<path d="M6.5 10.9688C6.5 10.9688 1.42188 8.125 1.42188 4.67188C1.42198 4.06156 1.63346 3.47011 2.02035 2.99809C2.40725 2.52607 2.94569 2.20261 3.54412 2.08272C4.14255 1.96282 4.76403 2.05389 5.30291 2.34043C5.84179 2.62697 6.26479 3.0913 6.5 3.65448L6.49999 3.65448C6.73521 3.0913 7.15821 2.62697 7.69709 2.34043C8.23596 2.05389 8.85745 1.96282 9.45588 2.08272C10.0543 2.20261 10.5927 2.52607 10.9796 2.99809C11.3665 3.47011 11.578 4.06156 11.5781 4.67188C11.5781 8.125 6.5 10.9688 6.5 10.9688Z" stroke="black" stroke-linecap="round" stroke-linejoin="round"/>
</svg>
