<svg width="227" height="30" viewBox="0 0 227 30" fill="none" xmlns="http://www.w3.org/2000/svg">
<path d="M148.883 12.8202H150.672V20.1282H154.654V3.89941H150.672V8.98981H148.883V4.00021H144.952V19.7502H148.883V12.8202ZM143.944 16.9782V13.5762C142.81 14.0298 140.92 14.2818 138.979 14.2818H137.518V12.4926H143.188V4.15142H133.612V7.60381H139.282V9.29221H133.612V17.7342H138.753C140.769 17.7342 142.81 17.457 143.944 16.9782ZM139.156 21.5898V18.7926H134.847V25.4202H154.906V21.5898H139.156Z" fill="white"/>
<path d="M178.062 4.40341H158.658V17.709H178.314V13.7778H163.018V8.35981H178.062V4.40341ZM179.247 20.6826H157.474V24.6642H179.247V20.6826Z" fill="white"/>
<path d="M204.445 11.7618H201.925V3.89941H197.666V25.4202H201.925V15.8946H204.445V11.7618ZM182.445 24.4122H194.969V4.40341H182.445V24.4122ZM186.704 8.35981H190.711V20.4558H186.704V8.35981Z" fill="white"/>
<path d="M226.77 3.89941H222.511V16.0458H226.77V3.89941ZM219.789 7.60381V4.15142H206.559V7.30141H215.732V8.38501H206.559V11.4342H214.422C212.885 12.4926 210.113 12.7446 206.559 12.7446V15.9198C213.918 15.9198 219.789 13.7022 219.789 7.60381ZM217.143 16.3986C211.65 16.3986 207.315 17.583 207.315 21.0354C207.315 24.4878 211.65 25.6722 217.143 25.6722C222.637 25.6722 226.971 24.4878 226.971 21.0354C226.971 17.583 222.637 16.3986 217.143 16.3986ZM217.143 22.3206C214.245 22.3206 211.902 21.993 211.902 21.0354C211.902 20.103 214.245 19.7502 217.143 19.7502C220.041 19.7502 222.385 20.103 222.385 21.0354C222.385 21.993 220.041 22.3206 217.143 22.3206Z" fill="white"/>
<path d="M0 0H120V30H0V0Z" fill="#7868E6"/>
<path d="M9.46603 11.446H8.33203V20.0968H14.218V19.0708H9.46603V11.446Z" fill="white"/>
<path d="M23.1879 20.0968H24.4299L20.8767 11.446H19.6779L16.1139 20.0968H17.3019L18.1659 17.9584H22.3239L23.1879 20.0968ZM18.5655 16.954L20.2503 12.7744L21.9243 16.954H18.5655Z" fill="white"/>
<path d="M26.6604 11.446V20.0968H27.7944V13.3036L33.0324 20.0428H34.1016V11.392H32.9568V18.1852L27.7188 11.446H26.6604Z" fill="white"/>
<path d="M37.0322 11.446V20.0968H40.0994C43.0802 20.0968 44.8082 18.358 44.8082 15.7768C44.8082 13.1956 43.0802 11.446 40.0994 11.446H37.0322ZM40.1318 19.0708H38.1662V12.4612H40.1318C42.3242 12.4612 43.6634 13.6708 43.6634 15.7768C43.6634 17.8828 42.3242 19.0708 40.1318 19.0708Z" fill="white"/>
<path d="M47.3829 11.446V20.0968H48.5169V13.714L51.3033 18.6388H52.1241L54.9105 13.714V20.0968H56.0445V11.446H55.0509L51.7137 17.3212L48.3765 11.446H47.3829Z" fill="white"/>
<path d="M65.3396 20.0968H66.5816L63.0284 11.446H61.8296L58.2656 20.0968H59.4536L60.3176 17.9584H64.4756L65.3396 20.0968ZM60.7172 16.954L62.402 12.7744L64.076 16.954H60.7172Z" fill="white"/>
<path d="M75.8428 20.0968L73.672 16.792C74.86 16.3708 75.5188 15.4636 75.5188 14.2432C75.5188 12.5368 74.2336 11.446 72.052 11.446H68.812V20.0968H69.946V17.0404H72.052C72.214 17.0404 72.376 17.0296 72.538 17.0188L74.5036 20.0968H75.8428ZM71.9656 16.0252H69.946V12.4612H71.9656C73.4668 12.4612 74.3848 13.0768 74.3848 14.2432C74.3848 15.4096 73.4668 16.0252 71.9656 16.0252Z" fill="white"/>
<path d="M83.6047 20.1724H86.0563L82.4167 15.3556L85.8727 11.3704H83.4643L79.9435 15.5176V11.3704H77.9779V20.1724H79.9435V18.196L81.1423 16.8136L83.6047 20.1724Z" fill="white"/>
<path d="M87.9806 11.3704V20.1724H89.9462V11.3704H87.9806Z" fill="white"/>
<path d="M92.5833 20.1724H94.5489V14.7724L98.9445 20.0644H100.586V11.2624H98.6205V16.6624L94.2249 11.3704H92.5833V20.1724Z" fill="white"/>
<path d="M107.539 11.1436C104.828 11.1436 102.83 13.0984 102.83 15.766C102.83 18.4336 104.828 20.3884 107.539 20.3884C110.206 20.3884 112.204 18.4336 112.204 15.766V15.2476H107.42V16.9108H110.109C109.904 17.7748 108.954 18.6172 107.582 18.6172C105.984 18.6172 104.796 17.4184 104.796 15.766C104.796 14.1244 105.984 12.9472 107.582 12.9472C108.651 12.9472 109.483 13.444 109.85 14.092H112.01C111.502 12.4396 109.839 11.1436 107.539 11.1436Z" fill="white"/>
</svg>
