<svg width="13" height="13" viewBox="0 0 13 13" fill="none" xmlns="http://www.w3.org/2000/svg">
<path d="M6.50032 5.28125V1.82812C6.50032 1.55876 6.39332 1.30044 6.20285 1.10997C6.01239 0.919503 5.75406 0.8125 5.4847 0.8125C5.21534 0.8125 4.95701 0.919503 4.76654 1.10997C4.57608 1.30044 4.46907 1.55876 4.46907 1.82812V7.98617L3.35557 6.05752C3.28894 5.9419 3.20018 5.84054 3.09436 5.75923C2.98855 5.67793 2.86774 5.61828 2.73886 5.58369C2.60998 5.54909 2.47554 5.54024 2.34323 5.55763C2.21092 5.57502 2.08334 5.61832 1.96777 5.68504C1.85221 5.75176 1.75092 5.8406 1.66971 5.94649C1.58849 6.05238 1.52894 6.17323 1.49446 6.30214C1.45997 6.43106 1.45123 6.5655 1.46873 6.69779C1.48623 6.83009 1.52963 6.95763 1.59645 7.07314C3.25032 10.5625 4.25667 11.7812 6.50032 11.7812C7.03382 11.7812 7.56209 11.6762 8.05498 11.472C8.54786 11.2679 8.99571 10.9686 9.37295 10.5914C9.75018 10.2141 10.0494 9.76629 10.2536 9.2734C10.4577 8.78052 10.5628 8.25225 10.5628 7.71875V5.6875C10.5628 5.41814 10.4558 5.15981 10.2654 4.96934C10.0749 4.77888 9.81656 4.67188 9.5472 4.67188C9.27784 4.67188 9.01951 4.77888 8.82904 4.96934C8.63858 5.15981 8.53157 5.41814 8.53157 5.6875" stroke="black" stroke-linecap="round" stroke-linejoin="round"/>
<path d="M8.53125 5.6875V5.07812C8.53125 4.80876 8.42425 4.55044 8.23378 4.35997C8.04331 4.1695 7.78499 4.0625 7.51562 4.0625C7.24626 4.0625 6.98794 4.1695 6.79747 4.35997C6.607 4.55044 6.5 4.80876 6.5 5.07812V5.28125" stroke="black" stroke-linecap="round" stroke-linejoin="round"/>
</svg>
