<svg width="40" height="40" viewBox="0 0 40 40" fill="none" xmlns="http://www.w3.org/2000/svg">
<path d="M20.5479 1.55225L35.7033 10.3022C35.9904 10.468 36.1999 10.741 36.2857 11.0613C36.3715 11.3815 36.3266 11.7227 36.1608 12.0098L32.6192 18.1441C32.4839 18.3784 32.2764 18.5624 32.0277 18.6686L27.0464 20.7964C26.7977 20.9027 26.5901 21.0867 26.4549 21.3209L17.9132 36.1155C17.7475 36.4026 17.4745 36.6121 17.1542 36.6979C16.834 36.7838 16.4928 36.7388 16.2057 36.5731L7.54546 31.5731C7.25835 31.4073 7.04886 31.1343 6.96305 30.8141C6.87725 30.4938 6.92217 30.1526 7.08793 29.8655L15.6296 15.0709C15.7648 14.8367 15.8204 14.5649 15.7881 14.2964L15.1402 8.91864C15.1078 8.65012 15.1634 8.37835 15.2987 8.14412L18.8403 2.00978C19.0061 1.72267 19.2791 1.51317 19.5993 1.42737C19.9196 1.34157 20.2608 1.38649 20.5479 1.55225V1.55225Z" stroke="white" stroke-width="2" stroke-linecap="round" stroke-linejoin="round"/>
<path d="M20.6255 18.9175L18.1255 23.2476" stroke="white" stroke-width="2" stroke-linecap="round" stroke-linejoin="round"/>
<path d="M16.3403 6.33984L33.6608 16.3398" stroke="white" stroke-width="2" stroke-linecap="round" stroke-linejoin="round"/>
</svg>
