<svg width="13" height="13" viewBox="0 0 13 13" fill="none" xmlns="http://www.w3.org/2000/svg">
<path d="M6.5 11.375C9.19239 11.375 11.375 9.19239 11.375 6.5C11.375 3.80761 9.19239 1.625 6.5 1.625C3.80761 1.625 1.625 3.80761 1.625 6.5C1.625 9.19239 3.80761 11.375 6.5 11.375Z" stroke="black" stroke-miterlimit="10"/>
<path d="M10.8757 8.65167L8.11899 6.95616C8.07067 6.92644 8.01665 6.90717 7.96043 6.89959L6.80167 6.74339C6.71466 6.73166 6.62619 6.74843 6.54951 6.7912C6.47283 6.83397 6.41207 6.90043 6.37633 6.98063L5.68069 8.54156C5.64834 8.61415 5.63799 8.69463 5.65092 8.77305C5.66386 8.85146 5.69951 8.92436 5.75346 8.98271L6.70814 10.0153C6.75142 10.0621 6.78308 10.1185 6.80055 10.1798C6.81802 10.2411 6.82081 10.3057 6.8087 10.3683L6.61424 11.3736" stroke="black" stroke-linecap="round" stroke-linejoin="round"/>
<path d="M3.29829 2.82373L2.8441 3.89774C2.8036 3.9935 2.80136 4.10115 2.83784 4.19851L3.42136 5.75588C3.44525 5.81966 3.4848 5.8764 3.53636 5.9209C3.58792 5.96539 3.64983 5.99621 3.71642 6.01052L4.80466 6.24442C4.86504 6.2574 4.92167 6.28397 4.97024 6.32213C5.01881 6.36028 5.05804 6.409 5.08495 6.4646L5.27821 6.86384C5.31147 6.93254 5.36341 6.99049 5.42808 7.03104C5.49275 7.07158 5.56754 7.09309 5.64387 7.09309H6.32599" stroke="black" stroke-linecap="round" stroke-linejoin="round"/>
<path d="M7.74186 1.78467L8.21583 2.63365C8.26064 2.71391 8.27691 2.80699 8.26197 2.89768C8.24704 2.98838 8.20179 3.07133 8.13361 3.13299L6.76705 4.36888C6.74385 4.38985 6.71832 4.40808 6.69094 4.4232L6.06929 4.7665C6.00916 4.7997 5.94159 4.81712 5.8729 4.81712H4.78895C4.70902 4.81712 4.63086 4.8407 4.56427 4.88491C4.49767 4.92912 4.4456 4.992 4.41457 5.06566L3.9917 6.06952" stroke="black" stroke-linecap="round" stroke-linejoin="round"/>
</svg>
