<svg width="40" height="40" viewBox="0 0 40 40" fill="none" xmlns="http://www.w3.org/2000/svg">
<path d="M4.99902 16.25H12.499V32.5H4.99902C4.6675 32.5 4.34956 32.3683 4.11514 32.1339C3.88072 31.8995 3.74902 31.5815 3.74902 31.25V17.5C3.74902 17.1685 3.88072 16.8505 4.11514 16.6161C4.34956 16.3817 4.6675 16.25 4.99902 16.25V16.25Z" stroke="white" stroke-width="2" stroke-linecap="round" stroke-linejoin="round"/>
<path d="M12.499 16.25L18.749 3.75C19.4056 3.75 20.0558 3.87933 20.6624 4.1306C21.2691 4.38188 21.8203 4.75017 22.2846 5.21447C22.7488 5.67876 23.1171 6.22996 23.3684 6.83658C23.6197 7.44321 23.749 8.09339 23.749 8.75V12.5H33.4171C33.7716 12.5 34.122 12.5754 34.4451 12.7212C34.7682 12.8669 35.0567 13.0797 35.2913 13.3455C35.5259 13.6112 35.7013 13.9238 35.8058 14.2626C35.9104 14.6013 35.9417 14.9583 35.8978 15.3101L34.0228 30.3101C33.9472 30.9147 33.6534 31.4709 33.1966 31.8742C32.7398 32.2775 32.1514 32.5 31.5421 32.5H12.499" stroke="white" stroke-width="2" stroke-linecap="round" stroke-linejoin="round"/>
</svg>
