<svg width="13" height="13" viewBox="0 0 13 13" fill="none" xmlns="http://www.w3.org/2000/svg">
<path d="M6.5 8.9375C8.74366 8.9375 10.5625 7.11866 10.5625 4.875C10.5625 2.63134 8.74366 0.8125 6.5 0.8125C4.25634 0.8125 2.4375 2.63134 2.4375 4.875C2.4375 7.11866 4.25634 8.9375 6.5 8.9375Z" stroke="black" stroke-linecap="round" stroke-linejoin="round"/>
<path d="M6.5 7.3125C7.84619 7.3125 8.9375 6.22119 8.9375 4.875C8.9375 3.52881 7.84619 2.4375 6.5 2.4375C5.15381 2.4375 4.0625 3.52881 4.0625 4.875C4.0625 6.22119 5.15381 7.3125 6.5 7.3125Z" stroke="black" stroke-linecap="round" stroke-linejoin="round"/>
<path d="M8.9375 8.12451V12.1873L6.49964 10.9685L4.0625 12.1873V8.12487" stroke="black" stroke-linecap="round" stroke-linejoin="round"/>
</svg>
