<svg width="24" height="24" viewBox="0 0 24 24" fill="none" xmlns="http://www.w3.org/2000/svg">
<path d="M3.50513 4.4592L8.99935 20.3314C9.05108 20.4809 9.14875 20.6101 9.27838 20.7008C9.40801 20.7914 9.56297 20.8387 9.72112 20.836C9.87926 20.8332 10.0325 20.7805 10.1589 20.6855C10.2853 20.5904 10.3784 20.4578 10.4249 20.3066L12.6333 13.1295C12.6692 13.0126 12.7333 12.9063 12.8198 12.8198C12.9063 12.7333 13.0126 12.6692 13.1295 12.6333L20.3066 10.4249C20.4578 10.3784 20.5904 10.2853 20.6855 10.1589C20.7805 10.0325 20.8332 9.87926 20.8359 9.72112C20.8387 9.56298 20.7914 9.40802 20.7008 9.27839C20.6101 9.14875 20.4809 9.05109 20.3314 8.99935L4.4592 3.50513C4.3262 3.45909 4.18292 3.4514 4.04575 3.48295C3.90858 3.5145 3.78306 3.58401 3.68354 3.68354C3.58401 3.78306 3.5145 3.90858 3.48295 4.04575C3.4514 4.18292 3.45909 4.3262 3.50513 4.4592V4.4592Z" stroke="#263646" stroke-width="2" stroke-linecap="round" stroke-linejoin="round"/>
</svg>
