<svg width="13" height="13" viewBox="0 0 13 13" fill="none" xmlns="http://www.w3.org/2000/svg">
<path d="M6.09341 5.40428L4.7731 3.11743C4.63869 2.88417 4.60238 2.60709 4.67217 2.34708C4.74196 2.08707 4.91212 1.8654 5.14527 1.7308C5.37841 1.59619 5.65546 1.55966 5.91553 1.62923C6.1756 1.69879 6.39741 1.86877 6.53221 2.10181L8.56346 5.62003" stroke="black" stroke-linecap="round" stroke-linejoin="round"/>
<path d="M4.53737 6.77176L2.60768 3.42945C2.54087 3.31394 2.49746 3.18639 2.47996 3.0541C2.46246 2.9218 2.4712 2.78736 2.50569 2.65845C2.54017 2.52953 2.59972 2.40868 2.68094 2.30279C2.76215 2.19691 2.86344 2.10806 2.979 2.04134C3.09457 1.97462 3.22215 1.93133 3.35446 1.91393C3.48677 1.89654 3.62121 1.9054 3.75009 1.93999C3.87897 1.97458 3.99978 2.03423 4.10559 2.11554C4.21141 2.19684 4.30017 2.2982 4.3668 2.41382L6.09336 5.40431" stroke="black" stroke-linecap="round" stroke-linejoin="round"/>
<path d="M7.81989 8.39429C7.55053 7.92774 7.47754 7.3733 7.61697 6.85294C7.7564 6.33257 8.09683 5.88891 8.56338 5.61955L8.05557 4.73999C7.98875 4.62448 7.94535 4.49694 7.92785 4.36464C7.91035 4.23235 7.91909 4.09791 7.95357 3.96899C7.98806 3.84008 8.04761 3.71923 8.12882 3.61334C8.21003 3.50745 8.31132 3.41861 8.42689 3.35189C8.54245 3.28517 8.67004 3.24187 8.80234 3.22448C8.93465 3.20709 9.06909 3.21594 9.19797 3.25054C9.32686 3.28513 9.44766 3.34478 9.55348 3.42608C9.6593 3.50739 9.74805 3.60875 9.81468 3.72437L10.8303 5.48348C11.0972 5.94551 11.2705 6.45558 11.3402 6.98458C11.4099 7.51357 11.3748 8.05112 11.2367 8.56653C11.0987 9.08194 10.8605 9.5651 10.5357 9.98843C10.2109 10.4118 9.80587 10.767 9.34378 11.0337C8.8817 11.3005 8.37158 11.4737 7.84257 11.5433C7.31356 11.6129 6.77602 11.5776 6.26064 11.4395C5.74527 11.3013 5.26215 11.063 4.8389 10.7381C4.41564 10.4132 4.06053 10.0081 3.79385 9.54598L1.86416 6.20366C1.72975 5.97041 1.69345 5.69333 1.76323 5.43331C1.83302 5.1733 2.00318 4.95164 2.23633 4.81703C2.46948 4.68242 2.74653 4.64589 3.0066 4.71546C3.26667 4.78503 3.48847 4.95501 3.62327 5.18804L4.53734 6.77124" stroke="black" stroke-linecap="round" stroke-linejoin="round"/>
<path d="M4.11806 12.1876C3.42949 11.7099 2.85551 11.0853 2.4375 10.3589" stroke="black" stroke-linecap="round" stroke-linejoin="round"/>
<path d="M8.9375 1.57422C9.40101 1.57416 9.85637 1.69617 10.2577 1.92799C10.6591 2.1598 10.9924 2.49324 11.224 2.89475" stroke="black" stroke-linecap="round" stroke-linejoin="round"/>
</svg>
