<svg width="40" height="40" viewBox="0 0 40 40" fill="none" xmlns="http://www.w3.org/2000/svg">
<path d="M20 25C23.4518 25 26.25 22.2018 26.25 18.75C26.25 15.2982 23.4518 12.5 20 12.5C16.5482 12.5 13.75 15.2982 13.75 18.75C13.75 22.2018 16.5482 25 20 25Z" stroke="white" stroke-width="2" stroke-linecap="round" stroke-linejoin="round"/>
<path d="M32.5 6.25H7.5C6.80964 6.25 6.25 6.80964 6.25 7.5V32.5C6.25 33.1904 6.80964 33.75 7.5 33.75H32.5C33.1904 33.75 33.75 33.1904 33.75 32.5V7.5C33.75 6.80964 33.1904 6.25 32.5 6.25Z" stroke="white" stroke-width="2" stroke-linecap="round" stroke-linejoin="round"/>
<path d="M9.02734 33.75C9.59446 31.2644 10.9888 29.045 12.982 27.4554C14.9752 25.8657 17.4491 25 19.9986 25C22.548 25 25.022 25.8657 27.0151 27.4554C29.0083 29.045 30.4027 31.2644 30.9698 33.75" stroke="white" stroke-width="2" stroke-linecap="round" stroke-linejoin="round"/>
</svg>
