<svg width="40" height="40" viewBox="0 0 40 40" fill="none" xmlns="http://www.w3.org/2000/svg">
<path d="M20 26.249C26.2132 26.249 31.25 21.2122 31.25 14.999C31.25 8.78582 26.2132 3.74902 20 3.74902C13.7868 3.74902 8.75 8.78582 8.75 14.999C8.75 21.2122 13.7868 26.249 20 26.249Z" stroke="white" stroke-width="2" stroke-linecap="round" stroke-linejoin="round"/>
<path d="M31.4905 26.4893C28.443 29.5367 24.3098 31.2488 20 31.2488C15.6902 31.2488 11.557 29.5367 8.50952 26.4893C5.46205 23.4418 3.75 19.3086 3.75 14.9988C3.75 10.689 5.46205 6.55577 8.50951 3.5083" stroke="white" stroke-width="2" stroke-linecap="round" stroke-linejoin="round"/>
<path d="M15 36.2485H25" stroke="white" stroke-width="2" stroke-linecap="round" stroke-linejoin="round"/>
<path d="M20 31.2485V36.2485" stroke="white" stroke-width="2" stroke-linecap="round" stroke-linejoin="round"/>
</svg>
