<svg width="56" height="60" viewBox="0 0 56 60" fill="none" xmlns="http://www.w3.org/2000/svg">
<path fill-rule="evenodd" clip-rule="evenodd" d="M2.33333 9.00002L53.6667 9C54.9553 9 56 10.1193 56 11.5C56 12.8807 54.9553 14 53.6667 14L2.33333 14C1.04467 14 4.17233e-07 12.8807 0 11.5C-2.78155e-07 10.1193 1.04467 9.00002 2.33333 9.00002Z" fill="#263646"/>
<path fill-rule="evenodd" clip-rule="evenodd" d="M21 23C22.1046 23 23 24.0297 23 25.3V43.7C23 44.9703 22.1046 46 21 46C19.8954 46 19 44.9703 19 43.7V25.3C19 24.0297 19.8954 23 21 23Z" fill="#263646"/>
<path fill-rule="evenodd" clip-rule="evenodd" d="M35 23C36.1046 23 37 24.0297 37 25.3V43.7C37 44.9703 36.1046 46 35 46C33.8954 46 33 44.9703 33 43.7V25.3C33 24.0297 33.8954 23 35 23Z" fill="#263646"/>
<path fill-rule="evenodd" clip-rule="evenodd" d="M7.3 9C8.57025 9 9.6 10.0379 9.6 11.3182V55.3636H46.4V11.3182C46.4 10.0379 47.4297 9.00001 48.7 9.00001C49.9703 9.00001 51 10.0379 51 11.3182V55.3636C51 56.5933 50.5154 57.7726 49.6527 58.642C48.79 59.5115 47.62 60 46.4 60H9.6C8.38001 60 7.20998 59.5115 6.34731 58.642C5.48464 57.7726 5 56.5933 5 55.3636V11.3182C5 10.0379 6.02974 9 7.3 9Z" fill="#263646"/>
<path fill-rule="evenodd" clip-rule="evenodd" d="M16.0503 2.05025C17.363 0.737498 19.1435 0 21 0H35C36.8565 0 38.637 0.737498 39.9497 2.05025C41.2625 3.36301 42 5.14348 42 7V11.6667C42 12.9553 40.9553 14 39.6667 14C38.378 14 37.3333 12.9553 37.3333 11.6667V7C37.3333 6.38116 37.0875 5.78767 36.6499 5.35008C36.2123 4.9125 35.6188 4.66667 35 4.66667H21C20.3812 4.66667 19.7877 4.9125 19.3501 5.35008C18.9125 5.78767 18.6667 6.38116 18.6667 7V11.6667C18.6667 12.9553 17.622 14 16.3333 14C15.0447 14 14 12.9553 14 11.6667V7C14 5.14348 14.7375 3.36301 16.0503 2.05025Z" fill="#263646"/>
</svg>
