<svg width="27" height="27" viewBox="0 0 27 27" fill="none" xmlns="http://www.w3.org/2000/svg">
<path d="M13.5 26C20.4036 26 26 20.4036 26 13.5C26 6.59644 20.4036 1 13.5 1C6.59644 1 1 6.59644 1 13.5C1 20.4036 6.59644 26 13.5 26Z" stroke="black" stroke-width="2" stroke-linecap="round" stroke-linejoin="round"/>
<path d="M18.9136 16.6245C18.3645 17.5743 17.5752 18.3629 16.6249 18.9111C15.6746 19.4594 14.5969 19.748 13.4998 19.748C12.4027 19.748 11.3249 19.4594 10.3747 18.9112C9.42439 18.3629 8.63507 17.5744 8.08594 16.6246" stroke="black" stroke-width="2" stroke-linecap="round" stroke-linejoin="round"/>
<path d="M8.8125 12.4583C9.67544 12.4583 10.375 11.7588 10.375 10.8958C10.375 10.0329 9.67544 9.33331 8.8125 9.33331C7.94955 9.33331 7.25 10.0329 7.25 10.8958C7.25 11.7588 7.94955 12.4583 8.8125 12.4583Z" fill="black"/>
<path d="M18.1875 12.4583C19.0504 12.4583 19.75 11.7588 19.75 10.8958C19.75 10.0329 19.0504 9.33331 18.1875 9.33331C17.3246 9.33331 16.625 10.0329 16.625 10.8958C16.625 11.7588 17.3246 12.4583 18.1875 12.4583Z" fill="black"/>
</svg>
