<svg width="24" height="24" viewBox="0 0 24 24" fill="none" xmlns="http://www.w3.org/2000/svg">
<path d="M11.4993 2.42619L3.93797 3.93846L2.4257 11.4998C2.40148 11.6209 2.40753 11.7461 2.44331 11.8642C2.47909 11.9824 2.5435 12.0899 2.6308 12.1772L12.4233 21.9697C12.4929 22.0393 12.5756 22.0946 12.6666 22.1323C12.7576 22.17 12.8551 22.1894 12.9536 22.1894C13.0521 22.1894 13.1496 22.17 13.2406 22.1323C13.3316 22.0946 13.4143 22.0393 13.4839 21.9697L21.9692 13.4844C22.0388 13.4148 22.0941 13.3321 22.1318 13.2411C22.1695 13.1501 22.1889 13.0526 22.1889 12.9541C22.1889 12.8556 22.1695 12.7581 22.1318 12.6671C22.0941 12.5761 22.0388 12.4934 21.9692 12.4237L12.1767 2.63129C12.0894 2.54398 11.9819 2.47958 11.8638 2.4438C11.7456 2.40802 11.6204 2.40197 11.4993 2.42619V2.42619Z" stroke="#263646" stroke-width="2" stroke-linecap="round" stroke-linejoin="round"/>
<path d="M7.875 9C8.49632 9 9 8.49632 9 7.875C9 7.25368 8.49632 6.75 7.875 6.75C7.25368 6.75 6.75 7.25368 6.75 7.875C6.75 8.49632 7.25368 9 7.875 9Z" fill="#263646"/>
</svg>
