<svg width="12" height="12" viewBox="0 0 12 12" fill="none" xmlns="http://www.w3.org/2000/svg">
<path fill-rule="evenodd" clip-rule="evenodd" d="M5.6015 1.80059C3.61328 1.80059 2.00151 3.41236 2.00151 5.40057C2.00151 7.38879 3.61328 9.00056 5.6015 9.00056C7.58972 9.00056 9.20149 7.38879 9.20149 5.40057C9.20149 3.41236 7.58972 1.80059 5.6015 1.80059ZM0.801514 5.40057C0.801514 2.74961 2.95054 0.600586 5.6015 0.600586C8.25246 0.600586 10.4015 2.74961 10.4015 5.40057C10.4015 8.05153 8.25246 10.2006 5.6015 10.2006C2.95054 10.2006 0.801514 8.05153 0.801514 5.40057Z" fill="white"/>
<path fill-rule="evenodd" clip-rule="evenodd" d="M8.14424 7.94624C8.37856 7.71193 8.75846 7.71193 8.99277 7.94624L11.4228 10.3763C11.6571 10.6106 11.6571 10.9905 11.4228 11.2248C11.1885 11.4591 10.8086 11.4591 10.5743 11.2248L8.14424 8.79477C7.90993 8.56046 7.90993 8.18056 8.14424 7.94624Z" fill="white"/>
</svg>
