<svg width="13" height="13" viewBox="0 0 13 13" fill="none" xmlns="http://www.w3.org/2000/svg">
<path d="M6.5 6.90625C7.39746 6.90625 8.125 6.17871 8.125 5.28125C8.125 4.38379 7.39746 3.65625 6.5 3.65625C5.60254 3.65625 4.875 4.38379 4.875 5.28125C4.875 6.17871 5.60254 6.90625 6.5 6.90625Z" stroke="black" stroke-linecap="round" stroke-linejoin="round"/>
<path d="M10.5625 5.28125C10.5625 8.9375 6.5 11.7812 6.5 11.7812C6.5 11.7812 2.4375 8.9375 2.4375 5.28125C2.4375 4.20381 2.86551 3.1705 3.62738 2.40863C4.38925 1.64676 5.42256 1.21875 6.5 1.21875C7.57744 1.21875 8.61075 1.64676 9.37262 2.40863C10.1345 3.1705 10.5625 4.20381 10.5625 5.28125V5.28125Z" stroke="black" stroke-linecap="round" stroke-linejoin="round"/>
</svg>
