<svg width="13" height="13" viewBox="0 0 13 13" fill="none" xmlns="http://www.w3.org/2000/svg">
<path d="M7.71875 4.0625V10.3451C7.71875 10.412 7.73526 10.4778 7.76682 10.5368C7.79838 10.5957 7.84401 10.646 7.89965 10.6831L8.45785 11.0552C8.51202 11.0913 8.57407 11.1139 8.63878 11.121C8.70349 11.1281 8.76897 11.1196 8.82969 11.0961C8.89041 11.0727 8.9446 11.0349 8.98769 10.9861C9.03079 10.9373 9.06152 10.8789 9.07731 10.8157L9.75 8.125" stroke="black" stroke-linecap="round" stroke-linejoin="round"/>
<path d="M9.75 8.12499C10.2887 8.12499 10.8054 7.91098 11.1863 7.53005C11.5672 7.14911 11.7812 6.63246 11.7812 6.09374C11.7812 5.55501 11.5672 5.03836 11.1863 4.65742C10.8054 4.27649 10.2887 4.06249 9.75 4.06249H7.71875C7.71875 4.06249 4.95362 4.06249 2.29272 1.83077C2.23354 1.78096 2.16137 1.74909 2.08469 1.73889C2.00802 1.7287 1.93003 1.74061 1.85989 1.77323C1.78975 1.80585 1.73039 1.85782 1.68878 1.92302C1.64717 1.98823 1.62504 2.06396 1.625 2.14131V10.0462C1.62504 10.1235 1.64717 10.1992 1.68878 10.2644C1.73039 10.3297 1.78975 10.3816 1.85989 10.4142C1.93003 10.4469 2.00802 10.4588 2.08469 10.4486C2.16137 10.4384 2.23354 10.4065 2.29272 10.3567C4.95362 8.12498 7.71875 8.12499 7.71875 8.12499H9.75Z" stroke="black" stroke-linecap="round" stroke-linejoin="round"/>
</svg>
