<svg width="40" height="40" viewBox="0 0 40 40" fill="none" xmlns="http://www.w3.org/2000/svg">
<path d="M14.5572 19.1927C13.5936 16.7892 13.4894 14.1267 14.2623 11.6553C15.0351 9.18386 16.6376 7.05507 18.7988 5.62875C20.96 4.20243 23.5474 3.56607 26.1237 3.82723C28.6999 4.08839 31.107 5.23105 32.938 7.06207C34.769 8.89309 35.9117 11.3002 36.1728 13.8764C36.434 16.4526 35.7976 19.0401 34.3713 21.2013C32.945 23.3625 30.8162 24.9649 28.3448 25.7378C25.8733 26.5106 23.2108 26.4064 20.8074 25.4428L20.8075 25.4426L18.75 27.5001H15V31.2501H11.25V35.0001H5V28.7501L14.5575 19.1926L14.5572 19.1927Z" stroke="white" stroke-width="2" stroke-linecap="round" stroke-linejoin="round"/>
<path d="M28.125 13.75C29.1605 13.75 30 12.9105 30 11.875C30 10.8395 29.1605 10 28.125 10C27.0895 10 26.25 10.8395 26.25 11.875C26.25 12.9105 27.0895 13.75 28.125 13.75Z" fill="white"/>
</svg>
