<svg width="100" height="26" viewBox="0 0 100 26" fill="none" xmlns="http://www.w3.org/2000/svg">
<path d="M0 0.248047H100V25.248H0V0.248047Z" fill="white"/>
<path d="M7.88836 9.53862H6.94336V16.7476H11.8484V15.8926H7.88836V9.53862Z" fill="#263646"/>
<path d="M19.3233 16.7476H20.3583L17.3973 9.53862H16.3983L13.4283 16.7476H14.4183L15.1383 14.9656H18.6033L19.3233 16.7476ZM15.4713 14.1286L16.8753 10.6456L18.2703 14.1286H15.4713Z" fill="#263646"/>
<path d="M22.217 9.53862V16.7476H23.162V11.0866L27.527 16.7026H28.418V9.49362H27.464V15.1546L23.099 9.53862H22.217Z" fill="#263646"/>
<path d="M30.8602 9.53862V16.7476H33.4162C35.9002 16.7476 37.3402 15.2986 37.3402 13.1476C37.3402 10.9966 35.9002 9.53862 33.4162 9.53862H30.8602ZM33.4432 15.8926H31.8052V10.3846H33.4432C35.2702 10.3846 36.3862 11.3926 36.3862 13.1476C36.3862 14.9026 35.2702 15.8926 33.4432 15.8926Z" fill="#263646"/>
<path d="M39.4857 9.53862V16.7476H40.4307V11.4286L42.7527 15.5326H43.4367L45.7587 11.4286V16.7476H46.7037V9.53862H45.8757L43.0947 14.4346L40.3137 9.53862H39.4857Z" fill="#263646"/>
<path d="M54.4496 16.7476H55.4846L52.5237 9.53862H51.5247L48.5546 16.7476H49.5447L50.2646 14.9656H53.7296L54.4496 16.7476ZM50.5976 14.1286L52.0017 10.6456L53.3966 14.1286H50.5976Z" fill="#263646"/>
<path d="M63.2024 16.7476L61.3934 13.9936C62.3834 13.6426 62.9324 12.8866 62.9324 11.8696C62.9324 10.4476 61.8614 9.53862 60.0434 9.53862H57.3434V16.7476H58.2884V14.2006H60.0434C60.1784 14.2006 60.3134 14.1916 60.4484 14.1826L62.0864 16.7476H63.2024ZM59.9714 13.3546H58.2884V10.3846H59.9714C61.2224 10.3846 61.9874 10.8976 61.9874 11.8696C61.9874 12.8416 61.2224 13.3546 59.9714 13.3546Z" fill="#263646"/>
<path d="M69.6706 16.8106H71.7136L68.6806 12.7966L71.5606 9.47562H69.5536L66.6196 12.9316V9.47562H64.9816V16.8106H66.6196V15.1636L67.6186 14.0116L69.6706 16.8106Z" fill="#263646"/>
<path d="M73.3172 9.47562V16.8106H74.9552V9.47562H73.3172Z" fill="#263646"/>
<path d="M77.1527 16.8106H78.7907V12.3106L82.4537 16.7206H83.8217V9.38562H82.1837V13.8856L78.5207 9.47562H77.1527V16.8106Z" fill="#263646"/>
<path d="M89.6156 9.28662C87.3566 9.28662 85.6916 10.9156 85.6916 13.1386C85.6916 15.3616 87.3566 16.9906 89.6156 16.9906C91.8386 16.9906 93.5036 15.3616 93.5036 13.1386V12.7066H89.5166V14.0926H91.7576C91.5866 14.8126 90.7946 15.5146 89.6516 15.5146C88.3196 15.5146 87.3296 14.5156 87.3296 13.1386C87.3296 11.7706 88.3196 10.7896 89.6516 10.7896C90.5426 10.7896 91.2356 11.2036 91.5416 11.7436H93.3416C92.9186 10.3666 91.5326 9.28662 89.6156 9.28662Z" fill="#263646"/>
</svg>
