<svg width="100" height="26" viewBox="0 0 100 26" fill="none" xmlns="http://www.w3.org/2000/svg">
<path d="M0 0.248047H100V25.248H0V0.248047Z" fill="white"/>
<path d="M7.89031 9.53874H6.94531V16.7477H11.8503V15.8927H7.89031V9.53874Z" fill="#263646"/>
<path d="M19.3252 16.7477H20.3602L17.3992 9.53874H16.4002L13.4302 16.7477H14.4202L15.1402 14.9657H18.6052L19.3252 16.7477ZM15.4732 14.1287L16.8772 10.6457L18.2722 14.1287H15.4732Z" fill="#263646"/>
<path d="M22.2189 9.53874V16.7477H23.1639V11.0867L27.5289 16.7027H28.4199V9.49374H27.4659V15.1547L23.1009 9.53874H22.2189Z" fill="#263646"/>
<path d="M30.8621 9.53874V16.7477H33.4181C35.9021 16.7477 37.3421 15.2987 37.3421 13.1477C37.3421 10.9967 35.9021 9.53874 33.4181 9.53874H30.8621ZM33.4451 15.8927H31.8071V10.3847H33.4451C35.2721 10.3847 36.3881 11.3927 36.3881 13.1477C36.3881 14.9027 35.2721 15.8927 33.4451 15.8927Z" fill="#263646"/>
<path d="M39.4877 9.53874V16.7477H40.4327V11.4287L42.7547 15.5327H43.4387L45.7607 11.4287V16.7477H46.7057V9.53874H45.8777L43.0967 14.4347L40.3157 9.53874H39.4877Z" fill="#263646"/>
<path d="M54.4516 16.7477H55.4866L52.5256 9.53874H51.5266L48.5566 16.7477H49.5466L50.2666 14.9657H53.7316L54.4516 16.7477ZM50.5996 14.1287L52.0036 10.6457L53.3986 14.1287H50.5996Z" fill="#263646"/>
<path d="M63.2043 16.7477L61.3953 13.9937C62.3853 13.6427 62.9343 12.8867 62.9343 11.8697C62.9343 10.4477 61.8633 9.53874 60.0453 9.53874H57.3453V16.7477H58.2903V14.2007H60.0453C60.1803 14.2007 60.3153 14.1917 60.4503 14.1827L62.0883 16.7477H63.2043ZM59.9733 13.3547H58.2903V10.3847H59.9733C61.2243 10.3847 61.9893 10.8977 61.9893 11.8697C61.9893 12.8417 61.2243 13.3547 59.9733 13.3547Z" fill="#263646"/>
<path d="M69.6726 16.8107H71.7156L68.6826 12.7967L71.5626 9.47574H69.5556L66.6216 12.9317V9.47574H64.9836V16.8107H66.6216V15.1637L67.6206 14.0117L69.6726 16.8107Z" fill="#263646"/>
<path d="M73.3191 9.47574V16.8107H74.9571V9.47574H73.3191Z" fill="#263646"/>
<path d="M77.1547 16.8107H78.7927V12.3107L82.4557 16.7207H83.8237V9.38574H82.1857V13.8857L78.5227 9.47574H77.1547V16.8107Z" fill="#263646"/>
<path d="M89.6176 9.28674C87.3586 9.28674 85.6936 10.9157 85.6936 13.1387C85.6936 15.3617 87.3586 16.9907 89.6176 16.9907C91.8406 16.9907 93.5056 15.3617 93.5056 13.1387V12.7067H89.5186V14.0927H91.7596C91.5886 14.8127 90.7965 15.5147 89.6535 15.5147C88.3215 15.5147 87.3316 14.5157 87.3316 13.1387C87.3316 11.7707 88.3215 10.7897 89.6535 10.7897C90.5445 10.7897 91.2376 11.2037 91.5436 11.7437H93.3436C92.9206 10.3667 91.5346 9.28674 89.6176 9.28674Z" fill="#263646"/>
</svg>
