<svg width="40" height="40" viewBox="0 0 40 40" fill="none" xmlns="http://www.w3.org/2000/svg">
<path d="M15 33.7498H7.5C7.16848 33.7498 6.85054 33.6181 6.61612 33.3837C6.3817 33.1493 6.25 32.8313 6.25 32.4998V25.5176C6.25 25.3534 6.28233 25.1909 6.34515 25.0392C6.40797 24.8876 6.50004 24.7498 6.61612 24.6337L25.3661 5.88369C25.6005 5.64927 25.9185 5.51758 26.25 5.51758C26.5815 5.51758 26.8995 5.64927 27.1339 5.88369L34.1161 12.8659C34.3505 13.1003 34.4822 13.4183 34.4822 13.7498C34.4822 14.0813 34.3505 14.3993 34.1161 14.6337L15 33.7498Z" stroke="white" stroke-width="2" stroke-linecap="round" stroke-linejoin="round"/>
<path d="M21.25 10L30 18.75" stroke="white" stroke-width="2" stroke-linecap="round" stroke-linejoin="round"/>
<path d="M33.75 33.75H15" stroke="white" stroke-width="2" stroke-linecap="round" stroke-linejoin="round"/>
</svg>
