<svg width="24" height="24" viewBox="0 0 24 24" fill="none" xmlns="http://www.w3.org/2000/svg">
<path d="M8.25 9H18" stroke="#313C4E" stroke-width="2" stroke-linecap="round" stroke-linejoin="round"/>
<path d="M8.25 12H18" stroke="#313C4E" stroke-width="2" stroke-linecap="round" stroke-linejoin="round"/>
<path d="M8.25 15H18" stroke="#313C4E" stroke-width="2" stroke-linecap="round" stroke-linejoin="round"/>
<path d="M3 19.5C3.39782 19.5 3.77936 19.342 4.06066 19.0607C4.34196 18.7794 4.5 18.3978 4.5 18V5.25C4.5 5.05109 4.57902 4.86032 4.71967 4.71967C4.86032 4.57902 5.05109 4.5 5.25 4.5H21C21.1989 4.5 21.3897 4.57902 21.5303 4.71967C21.671 4.86032 21.75 5.05109 21.75 5.25V18C21.75 18.3978 21.592 18.7794 21.3107 19.0607C21.0294 19.342 20.6478 19.5 20.25 19.5H3Z" stroke="#313C4E" stroke-width="2" stroke-linecap="round" stroke-linejoin="round"/>
<path d="M3 19.5C2.60218 19.5 2.22064 19.342 1.93934 19.0607C1.65804 18.7794 1.5 18.3978 1.5 18V7.5" stroke="#313C4E" stroke-width="2" stroke-linecap="round" stroke-linejoin="round"/>
</svg>
