<svg width="27" height="27" viewBox="0 0 27 27" fill="none" xmlns="http://www.w3.org/2000/svg">
<path d="M12.8199 16.498H14.1879L14.6559 6.07599H12.3699L12.8199 16.498ZM13.5039 20.782C14.2599 20.782 14.8359 20.206 14.8359 19.45C14.8359 18.712 14.2599 18.136 13.5039 18.136C12.7479 18.136 12.1719 18.712 12.1719 19.45C12.1719 20.206 12.7479 20.782 13.5039 20.782Z" fill="black"/>
<path d="M13.5 26C20.4036 26 26 20.4036 26 13.5C26 6.59644 20.4036 1 13.5 1C6.59644 1 1 6.59644 1 13.5C1 20.4036 6.59644 26 13.5 26Z" stroke="black" stroke-width="2" stroke-linecap="round" stroke-linejoin="round"/>
</svg>
